<svg width="168" height="35" viewBox="0 0 168 35" fill="none" xmlns="http://www.w3.org/2000/svg">
<path d="M50.8582 26.0991C50.4611 26.7931 49.8502 27.3664 49.0561 27.819C48.2619 28.2715 47.2539 28.4827 46.0626 28.4827C44.9019 28.4827 43.8939 28.2715 42.9775 27.8491C42.0917 27.4267 41.3586 26.8534 40.8393 26.1293C40.2895 25.4052 39.9841 24.5905 39.923 23.6552H42.3055C42.3666 24.1379 42.5193 24.6207 42.8248 25.0733C43.0997 25.5259 43.5273 25.9181 44.0466 26.2198C44.5964 26.5215 45.2379 26.6724 45.971 26.6724C46.9484 26.6724 47.7121 26.4009 48.2313 25.8879C48.7506 25.375 49.0255 24.7112 49.0255 23.8965C49.0255 23.2026 48.8422 22.6293 48.4757 22.1767C48.1091 21.7241 47.651 21.3922 47.1011 21.1509C46.5513 20.9095 45.8182 20.6379 44.8713 20.3362C43.7717 19.9741 42.8859 19.6422 42.2139 19.3103C41.5419 18.9784 40.9921 18.5259 40.5033 17.8922C40.0451 17.2586 39.8008 16.4138 39.8008 15.3879C39.8008 14.4828 40.0146 13.6983 40.4422 13.0345C40.8699 12.3707 41.5113 11.8276 42.3055 11.4353C43.1302 11.0733 44.0771 10.8621 45.1768 10.8621C46.8873 10.8621 48.2313 11.2845 49.2393 12.0991C50.2473 12.9138 50.8277 13.9698 50.9804 15.2371H48.5673C48.4451 14.5431 48.0786 13.9396 47.4982 13.4267C46.9179 12.9138 46.1542 12.6422 45.1462 12.6422C44.2299 12.6422 43.5273 12.8836 42.9775 13.3362C42.4277 13.7888 42.1528 14.4526 42.1528 15.2974C42.1528 15.9612 42.3361 16.5043 42.6721 16.9267C43.0386 17.3491 43.4662 17.681 43.9855 17.8922C44.5048 18.1034 45.2379 18.4052 46.1542 18.6767C47.2844 19.0388 48.1702 19.3707 48.8728 19.7026C49.5448 20.0345 50.1251 20.5172 50.6139 21.181C51.1026 21.8448 51.3164 22.7198 51.3164 23.806C51.4386 24.6509 51.2553 25.4052 50.8582 26.0991Z" fill="white"/>
<path d="M58.7695 19.612L66.7113 28.3017H63.9317L56.6619 20.2758V28.3017H54.4015V11.1034H56.6619V19.0689L63.9317 11.1034H66.6808L58.7695 19.612Z" fill="white"/>
<path d="M71.2015 11.1034V28.3017H68.9412V11.1034H71.2015Z" fill="white"/>
<path d="M77.0663 26.5818H83.2365V28.3017H74.8059V11.1034H77.0663V26.5818Z" fill="white"/>
<path d="M87.7572 26.5818H93.9274V28.3017H85.5273V11.1034H87.7877V26.5818H87.7572Z" fill="white"/>
<path d="M106.084 11.1034V12.9138H98.4786V18.8577H104.924V20.5775H98.4786V28.2715H96.2183V11.0732H106.084V11.1034Z" fill="white"/>
<path d="M121.082 12.0086C122.365 12.7629 123.404 13.7888 124.137 15.1465C124.87 16.4741 125.236 18.0129 125.236 19.7026C125.236 21.3922 124.87 22.9008 124.137 24.2586C123.404 25.5862 122.365 26.6422 121.082 27.3965C119.799 28.1508 118.333 28.5129 116.714 28.5129C115.095 28.5129 113.629 28.1508 112.346 27.3965C111.033 26.6422 110.025 25.6164 109.261 24.2586C108.528 22.931 108.161 21.3922 108.161 19.7026C108.161 18.0129 108.528 16.5043 109.261 15.1465C109.994 13.8189 111.033 12.7629 112.346 12.0086C113.66 11.2543 115.126 10.8922 116.714 10.8922C118.303 10.8922 119.799 11.2543 121.082 12.0086ZM113.507 13.7888C112.56 14.3319 111.827 15.1164 111.277 16.1422C110.727 17.1681 110.483 18.3448 110.483 19.7026C110.483 21.0603 110.758 22.237 111.277 23.2629C111.827 24.2888 112.56 25.0732 113.507 25.6164C114.454 26.1595 115.523 26.431 116.714 26.431C117.905 26.431 118.975 26.1595 119.921 25.6164C120.868 25.0732 121.601 24.2888 122.151 23.2629C122.701 22.237 122.945 21.0603 122.945 19.7026C122.945 18.3448 122.671 17.1379 122.151 16.1422C121.601 15.1164 120.868 14.3319 119.921 13.7888C118.975 13.2457 117.905 12.9741 116.714 12.9741C115.523 12.9741 114.454 13.2457 113.507 13.7888Z" fill="white"/>
<path d="M137.516 28.3017L132.964 21.2715H130.521V28.3017H128.291V11.1034H134.034C136.019 11.1034 137.485 11.556 138.463 12.4913C139.44 13.4267 139.929 14.6637 139.929 16.2025C139.929 17.5905 139.532 18.737 138.738 19.5818C137.943 20.4267 136.813 20.9698 135.316 21.181L140.051 28.2715H137.516V28.3017ZM130.521 19.6724H133.82C136.386 19.6724 137.638 18.556 137.638 16.3534C137.638 14.1508 136.355 13.0344 133.82 13.0344H130.521V19.6724Z" fill="white"/>
<path d="M160.119 11.4052V28.3017H157.859V14.8146L152.391 28.3017H150.406L144.938 14.875V28.3017H142.678V11.4052H145.366L151.444 25.5862L157.431 11.4052H160.119Z" fill="white"/>
<path d="M21.9317 19.0992H24.0393V12.8535H17.7164V14.9354H21.9317V19.0992Z" fill="url(#paint0_linear_1_9)"/>
<path d="M17.7164 29.4785H7.17819V21.1811V14.9354V12.8535H5.07056V31.5604H24.0393V29.4785H21.9317H17.7164Z" fill="url(#paint1_linear_1_9)"/>
<path d="M17.7164 6.60779V8.68968H28.2546V19.0992H30.3623V6.60779H17.7164Z" fill="url(#paint2_linear_1_9)"/>
<path d="M24.0392 23.2328H21.9316H15.6087H13.5011V21.1811V14.9354V12.8535V8.68969V6.60779H11.3934V10.7716V12.8535V14.9354V21.1811V25.3147H17.7163H21.9316H24.0392H28.2545H30.3622V23.2328H28.2545H24.0392Z" fill="url(#paint3_linear_1_9)"/>
<path d="M63.9316 16.7759V22.5086L66.8334 19.6423L63.9316 16.7759Z" fill="white"/>
<defs>
<linearGradient id="paint0_linear_1_9" x1="9.04903" y1="15.9618" x2="45.3885" y2="15.9618" gradientUnits="userSpaceOnUse">
<stop stop-color="#6554A3"/>
<stop offset="1" stop-color="#D17A91"/>
</linearGradient>
<linearGradient id="paint1_linear_1_9" x1="-19.4209" y1="22.2069" x2="23.7211" y2="22.2069" gradientUnits="userSpaceOnUse">
<stop stop-color="#6554A3"/>
<stop offset="1" stop-color="#D17A91"/>
</linearGradient>
<linearGradient id="paint2_linear_1_9" x1="18.4483" y1="12.8392" x2="59.6615" y2="12.8392" gradientUnits="userSpaceOnUse">
<stop stop-color="#6554A3"/>
<stop offset="1" stop-color="#D17A91"/>
</linearGradient>
<linearGradient id="paint3_linear_1_9" x1="-2.0422" y1="15.9618" x2="41.0997" y2="15.9618" gradientUnits="userSpaceOnUse">
<stop stop-color="#6554A3"/>
<stop offset="1" stop-color="#D17A91"/>
</linearGradient>
</defs>
</svg>
